<mxfile host="app.diagrams.net" agent="Mozilla/5.0 (Windows NT 10.0; Win64; x64; rv:131.0) Gecko/20100101 Firefox/131.0" version="24.7.17">
  <diagram name="Страница — 1" id="oKeaY1tWTlYtJ9Xiewwq">
    <mxGraphModel dx="794" dy="422" grid="1" gridSize="10" guides="1" tooltips="1" connect="1" arrows="1" fold="1" page="1" pageScale="1" pageWidth="827" pageHeight="1169" math="0" shadow="0">
      <root>
        <mxCell id="0" />
        <mxCell id="1" parent="0" />
        <mxCell id="HI_NVmjQqXgAQ0gUIyJw-1" value="" style="endArrow=none;html=1;rounded=0;" parent="1" edge="1">
          <mxGeometry width="50" height="50" relative="1" as="geometry">
            <mxPoint x="40" y="180" as="sourcePoint" />
            <mxPoint x="40" y="40" as="targetPoint" />
          </mxGeometry>
        </mxCell>
        <mxCell id="HI_NVmjQqXgAQ0gUIyJw-2" value="" style="endArrow=none;html=1;rounded=0;" parent="1" edge="1">
          <mxGeometry width="50" height="50" relative="1" as="geometry">
            <mxPoint x="134.5" y="180" as="sourcePoint" />
            <mxPoint x="134.5" y="40" as="targetPoint" />
          </mxGeometry>
        </mxCell>
        <mxCell id="HI_NVmjQqXgAQ0gUIyJw-3" value="" style="endArrow=none;html=1;rounded=0;" parent="1" edge="1">
          <mxGeometry width="50" height="50" relative="1" as="geometry">
            <mxPoint x="270" y="180" as="sourcePoint" />
            <mxPoint x="270" y="40" as="targetPoint" />
          </mxGeometry>
        </mxCell>
        <mxCell id="HI_NVmjQqXgAQ0gUIyJw-4" value="Docs" style="text;html=1;align=center;verticalAlign=middle;resizable=0;points=[];autosize=1;strokeColor=none;fillColor=none;" parent="1" vertex="1">
          <mxGeometry x="20" y="190" width="50" height="30" as="geometry" />
        </mxCell>
        <mxCell id="HI_NVmjQqXgAQ0gUIyJw-5" value="current_server-client" style="text;html=1;align=center;verticalAlign=middle;resizable=0;points=[];autosize=1;strokeColor=none;fillColor=none;" parent="1" vertex="1">
          <mxGeometry x="210" y="190" width="130" height="30" as="geometry" />
        </mxCell>
        <mxCell id="HI_NVmjQqXgAQ0gUIyJw-8" value="main_server_client" style="text;html=1;align=center;verticalAlign=middle;resizable=0;points=[];autosize=1;strokeColor=none;fillColor=none;" parent="1" vertex="1">
          <mxGeometry x="80" y="190" width="120" height="30" as="geometry" />
        </mxCell>
        <mxCell id="HI_NVmjQqXgAQ0gUIyJw-9" value="" style="endArrow=classic;html=1;rounded=0;fillColor=#f8cecc;strokeColor=#21FA36;" parent="1" edge="1">
          <mxGeometry width="50" height="50" relative="1" as="geometry">
            <mxPoint x="270" y="120" as="sourcePoint" />
            <mxPoint x="130" y="120" as="targetPoint" />
          </mxGeometry>
        </mxCell>
      </root>
    </mxGraphModel>
  </diagram>
</mxfile>
